<?xml version="1.0" encoding="UTF-8" standalone="no"?>
<svg
   xmlns:dc="http://purl.org/dc/elements/1.1/"
   xmlns:cc="http://creativecommons.org/ns#"
   xmlns:rdf="http://www.w3.org/1999/02/22-rdf-syntax-ns#"
   xmlns:svg="http://www.w3.org/2000/svg"
   xmlns="http://www.w3.org/2000/svg"
   xmlns:sodipodi="http://sodipodi.sourceforge.net/DTD/sodipodi-0.dtd"
   xmlns:inkscape="http://www.inkscape.org/namespaces/inkscape"
   aria-hidden="true"
   focusable="false"
   data-prefix="far"
   data-icon="envelope"
   class="svg-inline--fa fa-envelope fa-w-16"
   role="img"
   viewBox="0 0 512 512"
   version="1.1"
   id="svg835"
   sodipodi:docname="icon-envelope.svg"
   inkscape:version="1.0.2 (e86c870879, 2021-01-15)">
  <metadata
     id="metadata841">
    <rdf:RDF>
      <cc:Work
         rdf:about="">
        <dc:format>image/svg+xml</dc:format>
        <dc:type
           rdf:resource="http://purl.org/dc/dcmitype/StillImage" />
      </cc:Work>
    </rdf:RDF>
  </metadata>
  <defs
     id="defs839" />
  <sodipodi:namedview
     pagecolor="#ffffff"
     bordercolor="#666666"
     borderopacity="1"
     objecttolerance="10"
     gridtolerance="10"
     guidetolerance="10"
     inkscape:pageopacity="0"
     inkscape:pageshadow="2"
     inkscape:window-width="1918"
     inkscape:window-height="829"
     id="namedview837"
     showgrid="false"
     inkscape:zoom="1.2890625"
     inkscape:cx="256"
     inkscape:cy="349.09091"
     inkscape:window-x="0"
     inkscape:window-y="31"
     inkscape:window-maximized="1"
     inkscape:current-layer="svg835"
     inkscape:document-rotation="0" />
  <path
     fill="currentColor"
     d="M 464,128 H 48 C 21.49,128 0,149.49 0,176 v 288 c 0,26.51 21.49,48 48,48 h 416 c 26.51,0 48,-21.49 48,-48 V 176 c 0,-26.51 -21.49,-48 -48,-48 z m 0,48 v 40.805 c -22.422,18.259 -58.168,46.651 -134.587,106.49 -16.841,13.247 -50.201,45.072 -73.413,44.701 -23.208,0.375 -56.579,-31.459 -73.413,-44.701 C 106.18,263.465 70.425,235.067 48,216.805 V 176 Z M 48,464 V 278.398 c 22.914,18.251 55.409,43.862 104.938,82.646 21.857,17.205 60.134,55.186 103.062,54.955 42.717,0.231 80.509,-37.199 103.053,-54.947 C 408.581,322.269 441.085,296.651 464,278.399 V 464 Z"
     id="path833" />
</svg>
