<?xml version="1.0" encoding="UTF-8" standalone="no"?>
<svg
   xmlns:dc="http://purl.org/dc/elements/1.1/"
   xmlns:cc="http://creativecommons.org/ns#"
   xmlns:rdf="http://www.w3.org/1999/02/22-rdf-syntax-ns#"
   xmlns:svg="http://www.w3.org/2000/svg"
   xmlns="http://www.w3.org/2000/svg"
   xmlns:xlink="http://www.w3.org/1999/xlink"
   xmlns:sodipodi="http://sodipodi.sourceforge.net/DTD/sodipodi-0.dtd"
   xmlns:inkscape="http://www.inkscape.org/namespaces/inkscape"
   version="1.1"
   id="Calque_1"
   x="0px"
   y="0px"
   width="605.625"
   height="265.81"
   viewBox="0 0 666.1875 292.391"
   enable-background="new 0 0 141.73 56.69"
   xml:space="preserve"
   sodipodi:docname="logo-amf.svg"
   inkscape:version="1.0.2 (e86c870879, 2021-01-15)"><metadata
   id="metadata914"><rdf:RDF><cc:Work
       rdf:about=""><dc:format>image/svg+xml</dc:format><dc:type
         rdf:resource="http://purl.org/dc/dcmitype/StillImage" /><dc:title></dc:title></cc:Work></rdf:RDF></metadata><defs
   id="defs912" /><sodipodi:namedview
   pagecolor="#ffffff"
   bordercolor="#666666"
   borderopacity="1"
   objecttolerance="10"
   gridtolerance="10"
   guidetolerance="10"
   inkscape:pageopacity="0"
   inkscape:pageshadow="2"
   inkscape:window-width="1389"
   inkscape:window-height="744"
   id="namedview910"
   showgrid="false"
   inkscape:zoom="0.99532779"
   inkscape:cx="291.16176"
   inkscape:cy="185.08604"
   inkscape:window-x="447"
   inkscape:window-y="87"
   inkscape:window-maximized="0"
   inkscape:current-layer="Calque_1"
   fit-margin-top="0"
   fit-margin-left="0"
   fit-margin-right="0"
   fit-margin-bottom="0"
   scale-x="1.1" />

<g
   id="g955"
   transform="translate(1.5600845,-2.1781816)"><polygon
     fill="#db002e"
     points="110.188,54.806 103.473,54.806 103.473,24.874 130.067,24.874 130.067,30.343 110.188,30.343 110.188,37.681 128.953,37.681 128.953,42.575 110.188,42.575 "
     id="polygon833"
     transform="matrix(5,0,0,5,-16.553833,7.2486808)" /><g
     id="g907"
     transform="matrix(5,0,0,5,-16.553833,7.2486808)">
	<defs
   id="defs836">
		<rect
   id="SVGID_1_"
   width="141.73"
   height="56.689999"
   x="0"
   y="0" />
	</defs>
	<clipPath
   id="SVGID_2_">
		<use
   xlink:href="#SVGID_1_"
   overflow="visible"
   id="use838"
   x="0"
   y="0"
   width="100%"
   height="100%" />
	</clipPath>
	<path
   clip-path="url(#SVGID_2_)"
   fill="#003867"
   d="m 38.633,54.806 h 7.749 L 27.873,23.544 H 27.565 L 9.055,54.806 h 7.214 l 2.567,-4.627 h 17.229 z m -17.229,-9.254 6.047,-10.899 6.047,10.899 z"
   id="path841" />
	<g
   clip-path="url(#SVGID_2_)"
   id="g905">
		<path
   fill="#003867"
   d="m 53.493,25.504 c -1.331,-0.286 -2.59,-0.49 -3.787,-0.629 v 29.931 h 6.255 V 32.724 c 9.266,3.314 17.395,11.188 22.82,22.082 h 6.901 C 78.806,39.243 67.007,28.416 53.493,25.504"
   id="path843" />
		<path
   fill="#db002e"
   d="m 90.378,25.504 c 1.331,-0.286 2.589,-0.49 3.785,-0.629 V 54.806 H 87.91 V 32.724 C 78.644,36.038 70.515,43.912 65.089,54.806 h -6.9 C 65.065,39.243 76.862,28.416 90.378,25.504"
   id="path845" />
		<path
   fill="#003867"
   d="m 33.83,7.064 0.741,-1.58 0.741,1.58 z m -1.4,1.411 h 0.736 l 0.376,-0.814 h 2.045 l 0.37,0.814 h 0.731 L 34.966,4.929 h -0.79 z"
   id="path847" />
		<path
   fill="#003867"
   d="m 41.542,6.952 c 0,1.142 -0.727,1.61 -1.883,1.61 -1.157,0 -1.883,-0.469 -1.883,-1.61 V 4.929 h 0.694 v 1.975 c 0,0.585 0.209,1.063 1.189,1.063 0.98,0 1.191,-0.478 1.191,-1.063 V 4.929 h 0.692 z"
   id="path849" />
		<polygon
   fill="#003867"
   points="46.685,4.928 46.685,5.523 45.099,5.523 45.099,8.475 44.405,8.475 44.405,5.523 42.819,5.523 42.819,4.928 "
   id="polygon851" />
		<path
   fill="#003867"
   d="m 49.706,7.967 c -0.663,0 -1.419,-0.273 -1.419,-1.278 0,-0.853 0.61,-1.254 1.419,-1.254 0.811,0 1.419,0.401 1.419,1.254 0,1.005 -0.755,1.278 -1.419,1.278 M 47.594,6.728 c 0,0.737 0.434,1.835 2.112,1.835 1.679,0 2.113,-1.098 2.113,-1.835 0,-0.971 -0.552,-1.888 -2.113,-1.888 -1.56,0 -2.112,0.917 -2.112,1.888"
   id="path853" />
		<path
   fill="#003867"
   d="M 53.933,6.504 V 5.503 h 1.337 c 0.566,0 0.854,0.083 0.854,0.498 0,0.419 -0.288,0.503 -0.854,0.503 z m -0.692,1.971 h 0.692 V 7.08 h 1.098 l 1.029,1.395 h 0.852 L 55.825,7.032 c 0.522,-0.03 0.99,-0.391 0.99,-1.045 0,-0.868 -0.604,-1.058 -1.442,-1.058 H 53.24 v 3.546 z"
   id="path855" />
		<rect
   x="58.438999"
   y="4.9289999"
   fill="#003867"
   width="0.69400001"
   height="3.546"
   id="rect857" />
		<polygon
   fill="#003867"
   points="64.339,4.928 64.339,5.523 62.754,5.523 62.754,8.475 62.061,8.475 62.061,5.523 60.476,5.523 60.476,4.928 "
   id="polygon859" />
		<path
   fill="#003867"
   d="m 67.263,3.971 h 0.686 l -0.782,0.698 h -0.43 z m -1.579,0.957 h 3.182 v 0.595 h -2.487 v 0.824 h 2.141 v 0.594 h -2.141 v 0.938 h 2.545 v 0.595 h -3.24 z"
   id="path861" />
		<path
   fill="#003867"
   d="m 33.227,12.401 h 1.321 c 0.722,0 1.459,0.307 1.459,1.346 0,1.395 -1.176,1.439 -1.526,1.439 h -1.254 z m -0.429,3.165 h 1.614 c 0.937,0 2.035,-0.361 2.035,-1.805 0,-1.162 -0.795,-1.741 -1.898,-1.741 h -1.75 v 3.546 z"
   id="path863" />
		<polygon
   fill="#003867"
   points="38.295,13.913 38.295,15.186 41.085,15.186 41.085,15.567 37.866,15.567 37.866,12.021 41.027,12.021 41.027,12.401 38.295,12.401 38.295,13.533 40.578,13.533 40.578,13.913 "
   id="polygon865" />
		<path
   fill="#003867"
   d="m 42.426,14.552 c 0.206,0.273 0.547,0.722 1.61,0.722 0.547,0 1.292,-0.156 1.292,-0.707 0,-1.079 -3.092,-0.132 -3.092,-1.571 0,-0.755 0.698,-1.062 1.664,-1.062 0.937,0 1.512,0.384 1.756,0.726 l -0.312,0.253 c -0.147,-0.166 -0.487,-0.62 -1.453,-0.62 -0.713,0 -1.216,0.186 -1.216,0.635 0,1.072 3.093,0.048 3.093,1.639 0,0.595 -0.577,1.088 -1.781,1.088 -1.161,0 -1.589,-0.484 -1.893,-0.82 z"
   id="path867" />
		<polygon
   fill="#003867"
   points="53.657,12.021 53.657,15.567 53.263,15.567 53.263,12.401 53.253,12.401 51.868,15.567 51.506,15.567 50.112,12.401 50.101,12.401 50.101,15.567 49.707,15.567 49.707,12.021 50.369,12.021 51.682,15.005 52.994,12.021 "
   id="polygon869" />
		<path
   fill="#003867"
   d="m 56.072,14.264 0.951,-1.907 0.952,1.907 z m -1.136,1.302 h 0.478 l 0.464,-0.922 h 2.288 l 0.458,0.922 h 0.484 l -1.82,-3.546 h -0.525 z"
   id="path871" />
		<path
   fill="#003867"
   d="m 60.813,12.401 h 1.522 c 0.62,0 1.083,0.088 1.083,0.605 0,0.521 -0.464,0.609 -1.083,0.609 h -1.522 z m -0.428,3.165 h 0.428 v -1.57 h 1.396 l 1.142,1.57 h 0.531 l -1.17,-1.58 c 0.428,-0.02 1.116,-0.235 1.116,-0.975 0,-0.869 -0.829,-0.991 -1.395,-0.991 h -2.049 v 3.546 z"
   id="path873" />
		<path
   fill="#003867"
   d="m 69.14,14.625 c -0.38,0.737 -1.039,1.03 -1.901,1.03 -1.376,0 -2.026,-0.826 -2.026,-1.854 0,-1.221 0.825,-1.869 2.019,-1.869 0.761,0 1.538,0.293 1.855,1.015 l -0.371,0.171 c -0.249,-0.581 -0.8,-0.825 -1.478,-0.825 -1.015,0 -1.586,0.552 -1.586,1.562 0,0.814 0.551,1.419 1.625,1.419 0.701,0 1.19,-0.293 1.482,-0.834 z"
   id="path875" />
		<polygon
   fill="#003867"
   points="73.754,15.567 73.754,13.903 70.964,13.903 70.964,15.567 70.536,15.567 70.536,12.021 70.964,12.021 70.964,13.522 73.754,13.522 73.754,12.021 74.185,12.021 74.185,15.567 "
   id="polygon877" />
		<path
   fill="#003867"
   d="m 77.462,11.093 h 0.556 l -0.723,0.693 h -0.356 z m -1.605,0.928 h 3.162 v 0.38 h -2.734 v 1.132 h 2.284 v 0.38 h -2.284 v 1.272 h 2.792 v 0.381 h -3.22 z"
   id="path879" />
		<path
   fill="#003867"
   d="m 80.416,14.552 c 0.206,0.273 0.546,0.722 1.611,0.722 0.547,0 1.293,-0.156 1.293,-0.707 0,-1.079 -3.092,-0.132 -3.092,-1.571 0,-0.755 0.695,-1.062 1.661,-1.062 0.936,0 1.515,0.384 1.758,0.726 l -0.313,0.253 c -0.147,-0.166 -0.487,-0.62 -1.453,-0.62 -0.711,0 -1.215,0.186 -1.215,0.635 0,1.072 3.092,0.048 3.092,1.639 0,0.595 -0.575,1.088 -1.78,1.088 -1.16,0 -1.588,-0.484 -1.894,-0.82 z"
   id="path881" />
		<polygon
   fill="#003867"
   points="87.698,15.567 87.698,12.021 90.936,12.021 90.936,12.401 88.127,12.401 88.127,13.522 90.498,13.522 90.498,13.903 88.127,13.903 88.127,15.567 "
   id="polygon883" />
		<rect
   x="92.223999"
   y="12.021"
   fill="#003867"
   width="0.43099999"
   height="3.546"
   id="rect885" />
		<polygon
   fill="#003867"
   points="94.312,15.567 94.312,12.021 94.921,12.021 97.561,14.938 97.561,12.021 97.989,12.021 97.989,15.567 97.561,15.567 94.722,12.401 94.722,15.567 "
   id="polygon887" />
		<path
   fill="#003867"
   d="m 100.406,14.264 0.95,-1.907 0.951,1.907 z m -1.138,1.302 h 0.479 l 0.462,-0.922 h 2.287 l 0.458,0.922 h 0.485 L 101.62,12.02 h -0.527 z"
   id="path889" />
		<polygon
   fill="#003867"
   points="104.718,15.567 104.718,12.021 105.326,12.021 107.964,14.938 107.964,12.021 108.395,12.021 108.395,15.567 107.964,15.567 105.126,12.401 105.126,15.567 "
   id="polygon891" />
		<path
   fill="#003867"
   d="m 113.741,14.625 c -0.382,0.737 -1.042,1.03 -1.903,1.03 -1.375,0 -2.024,-0.826 -2.024,-1.854 0,-1.221 0.823,-1.869 2.02,-1.869 0.763,0 1.536,0.293 1.854,1.015 l -0.372,0.171 c -0.248,-0.581 -0.799,-0.825 -1.477,-0.825 -1.015,0 -1.586,0.552 -1.586,1.562 0,0.814 0.552,1.419 1.626,1.419 0.702,0 1.188,-0.293 1.481,-0.834 z"
   id="path893" />
		<rect
   x="115.122"
   y="12.021"
   fill="#003867"
   width="0.428"
   height="3.546"
   id="rect895" />
		<polygon
   fill="#003867"
   points="117.638,13.913 117.638,15.186 120.429,15.186 120.429,15.567 117.209,15.567 117.209,12.021 120.37,12.021 120.37,12.401 117.638,12.401 117.638,13.533 119.921,13.533 119.921,13.913 "
   id="polygon897" />
		<path
   fill="#003867"
   d="m 122.165,12.401 h 1.521 c 0.62,0 1.084,0.088 1.084,0.605 0,0.521 -0.464,0.609 -1.084,0.609 h -1.521 z m -0.43,3.165 h 0.43 v -1.57 h 1.396 l 1.143,1.57 h 0.53 l -1.171,-1.58 c 0.428,-0.02 1.116,-0.235 1.116,-0.975 0,-0.869 -0.829,-0.991 -1.396,-0.991 h -2.048 z"
   id="path899" />
		<path
   fill="#003867"
   d="m 126.837,14.552 c 0.206,0.273 0.546,0.722 1.61,0.722 0.546,0 1.293,-0.156 1.293,-0.707 0,-1.079 -3.092,-0.132 -3.092,-1.571 0,-0.755 0.696,-1.062 1.662,-1.062 0.938,0 1.514,0.384 1.757,0.726 l -0.312,0.253 c -0.146,-0.166 -0.486,-0.62 -1.452,-0.62 -0.715,0 -1.218,0.186 -1.218,0.635 0,1.072 3.095,0.048 3.095,1.639 0,0.595 -0.576,1.088 -1.78,1.088 -1.161,0 -1.592,-0.484 -1.895,-0.82 z"
   id="path901" />
		<rect
   x="27.565001"
   y="1.6440001"
   fill="#003867"
   width="0.30700001"
   height="17.205999"
   id="rect903" />
	</g>
</g></g>
</svg>
