<?xml version="1.0" encoding="UTF-8" standalone="no"?>
<svg
   xmlns:dc="http://purl.org/dc/elements/1.1/"
   xmlns:cc="http://creativecommons.org/ns#"
   xmlns:rdf="http://www.w3.org/1999/02/22-rdf-syntax-ns#"
   xmlns:svg="http://www.w3.org/2000/svg"
   xmlns="http://www.w3.org/2000/svg"
   xmlns:sodipodi="http://sodipodi.sourceforge.net/DTD/sodipodi-0.dtd"
   xmlns:inkscape="http://www.inkscape.org/namespaces/inkscape"
   id="Calque_1"
   data-name="Calque 1"
   viewBox="0 0 810.96412 319.16452"
   version="1.1"
   sodipodi:docname="logo-urw.svg"
   width="737.24011"
   height="290.14957"
   inkscape:version="1.0.2 (e86c870879, 2021-01-15)">
  <metadata
     id="metadata1002">
    <rdf:RDF>
      <cc:Work
         rdf:about="">
        <dc:format>image/svg+xml</dc:format>
        <dc:type
           rdf:resource="http://purl.org/dc/dcmitype/StillImage" />
        <dc:title>LOGO_URW_RGB_red&amp;amp;black_verysmall</dc:title>
      </cc:Work>
    </rdf:RDF>
  </metadata>
  <sodipodi:namedview
     pagecolor="#ffffff"
     bordercolor="#666666"
     borderopacity="1"
     objecttolerance="10"
     gridtolerance="10"
     guidetolerance="10"
     inkscape:pageopacity="0"
     inkscape:pageshadow="2"
     inkscape:window-width="1763"
     inkscape:window-height="830"
     id="namedview1000"
     showgrid="false"
     fit-margin-top="0"
     fit-margin-left="0"
     fit-margin-right="0"
     fit-margin-bottom="0"
     scale-x="1.1"
     inkscape:zoom="0.44652549"
     inkscape:cx="-184.50469"
     inkscape:cy="257.84591"
     inkscape:window-x="0"
     inkscape:window-y="31"
     inkscape:window-maximized="0"
     inkscape:current-layer="Calque_1"
     inkscape:document-rotation="0" />
  <defs
     id="defs943">
    <style
       id="style941">.cls-1{fill:#3b3836;}.cls-2{fill:#e1251b;}</style>
  </defs>
  <title
     id="title945">LOGO_URW_RGB_red&amp;amp;black_verysmall</title>
  <g
     id="g977"
     transform="translate(36.861994,14.507475)">
    <g
       id="g947"
       transform="translate(-643.36987,-44.9065)">
      <g
         id="g919"
         transform="translate(988.505,-206.94957)">
        <path
           class="cls-1"
           d="m 62.754998,316.10606 v -64.04999 h 9.45 v 63.14999 a 10,10 0 0 0 10,11.2 c 7,0 10,-4.7 10,-11.1 V 252.05607 H 101.155 v 63.39999 a 18.05,18.05 0 0 1 -19.500002,19.30001 c -11.05,0 -18.9,-5.95001 -18.9,-18.65001 z"
           id="path947"
           style="stroke-width:5" />
        <path
           class="cls-1"
           d="m 121.655,252.10607 h 10 l 20.8,57.65 v 0 -57.65001 h 9.2 v 81.55 h -9.05 l -22.05,-62.6 h -0.35 v 62.6 h -8.55 z"
           id="path949"
           style="stroke-width:5" />
        <path
           class="cls-1"
           d="m 182.705,252.10607 h 9.5 v 81.54999 h -9.5 z"
           id="path951"
           style="stroke-width:5" />
        <path
           class="cls-1"
           d="m 213.505,252.10607 h 19.55 c 11.45,0 16.7,7.4 16.7,20.35 0,10.4 -4.1,17.5 -10.85,18.84999 v 0.45001 c 8.2,1.85 11.55,9.5 11.55,19.25 0,16.34999 -7,22.64999 -16.85,22.64999 h -20 z m 16.7,35.9 c 5.95,0 10.4,-4.25 10.4,-14.55 0,-9.45 -3.65,-13.25001 -9.05,-13.25001 h -8.55 v 27.80001 z m 1.5,37.5 c 6.05,0 9.25,-5 9.25,-15 0,-10 -4.3,-14.5 -10.65,-14.5 h -7.3 v 29.5 z"
           id="path953"
           style="stroke-width:5" />
        <path
           class="cls-1"
           d="m 281.955,251.85607 h 12.6 l 16.35,81.79999 h -9.25 l -5,-24.14999 h -18 l -4.55,24.39999 h -8.85 z m 13.2,49.65 -7.25,-38.80001 h -0.3 l -7.35,38.80001 z"
           id="path955"
           style="stroke-width:5" />
        <path
           class="cls-1"
           d="m 328.755,252.10607 h 9.5 v 81.54999 h -9.5 z"
           id="path957"
           style="stroke-width:5" />
        <path
           class="cls-1"
           d="m 359.605,252.10607 h 9.5 v 73.29999 h 23 v 8.25001 h -32.5 z"
           id="path959"
           style="stroke-width:5" />
      </g>
      <g
         id="g910"
         transform="translate(546.08361,-103.61504)">
        <path
           class="cls-1"
           d="m 440.205,252.10607 h 17.95 c 12.95,0 19.35,8.19999 19.35,22.65 0,11.54999 -4.25,18.95 -10.85,21.14999 l 11.65,37.75 h -9.6 l -10.85,-35.6 h -8.15 v 35.6 h -9.5 z m 17.75,38.65 c 6.75,0 10,-5.4 10,-15 0,-8.05001 -2.4,-15.45001 -10.4,-15.45001 h -7.85 v 30.65 z"
           id="path963"
           style="stroke-width:5" />
        <path
           class="cls-1"
           d="m 495.405,315.30606 v -45 a 18.45,18.45 0 0 1 20,-19.35 c 11.1,0 19.7,5.85 19.7,18.40001 v 45.65 a 18.5,18.5 0 0 1 -20,20 c -11.8,-0.25 -19.7,-6.65001 -19.7,-19.70001 z m 30.35,0 v -46.1 a 10.45,10.45 0 0 0 -20.85,0.35 v 45.9 a 10.45,10.45 0 1 0 20.85,0 z"
           id="path965"
           style="stroke-width:5" />
        <path
           class="cls-1"
           d="m 555.005,252.10607 h 19.35 c 10.75,0 19,5.44999 19,17.15 v 45.85 c 0,12.59999 -8.25,18.54999 -19.2,18.54999 h -19.15 z m 18.55,73.4 a 9.7,9.7 0 0 0 10.3,-10.5 v -45 a 9.35,9.35 0 0 0 -10.3,-10 h -9.05 v 65.5 z"
           id="path967"
           style="stroke-width:5" />
        <path
           class="cls-1"
           d="m 624.755,251.85607 h 12.6 l 16.35,81.79999 h -9.5 l -4.7,-24.14999 h -17.85 l -5,24.14999 h -8.8 z m 13.15,49.65 -7.2,-38.80001 h -0.35 l -7.3,38.80001 z"
           id="path969"
           style="stroke-width:5" />
        <path
           class="cls-1"
           d="m 671.055,252.10607 h 11.45 l 12.35,35 h 0.25 l 12.7,-35 h 10.85 v 81.55 h -8.45 v -65 h -0.25 l -12,33.85 h -6.3 l -11.8,-33.75 v 0 64.9 h -8.5 z"
           id="path971"
           style="stroke-width:5" />
        <path
           class="cls-1"
           d="m 738.355,316.45606 v -46.94999 c 0,-11.35001 7.9,-18.65 20,-18.65 12.1,0 18.3,6.9 18.3,16.54999 v 9.25 h -8.5 v -7.89999 a 9.15,9.15 0 0 0 -10,-10 9.6,9.6 0 0 0 -10.3,10.89999 v 45.65 a 9.7,9.7 0 0 0 10.5,10.95001 9.2,9.2 0 0 0 10,-9.70001 v -8 h 8.3 v 8.45001 a 17.1,17.1 0 0 1 -18.55,17.59999 c -11.75,0.15001 -19.75,-6.34999 -19.75,-18.15 z"
           id="path973"
           style="stroke-width:5" />
        <path
           class="cls-1"
           d="m 794.805,315.30606 v -45 a 18.4,18.4 0 0 1 20,-19.35 c 11.1,0 19.65,5.85 19.65,18.40001 v 45.65 a 18.45,18.45 0 0 1 -20,20 c -11.75,-0.25 -19.65,-6.65001 -19.65,-19.70001 z m 30.3,0 v -46.1 a 10.401473,10.401473 0 0 0 -20.8,0.35 v 45.9 a 10.4,10.4 0 1 0 20.8,0 z"
           id="path975"
           style="stroke-width:5" />
      </g>
      <g
         id="g901"
         transform="translate(62.754996)">
        <path
           class="cls-1"
           d="m 882.455,252.05607 h 9.2 l 7.55,59.59999 h 0.35 l 8.9,-59.6 h 9.4 l 8.9,59.5 h 0.25 l 7.45,-59.49999 h 8.45 l -11.25,82.14999 h -8.8 l -9.7,-62.34999 h -0.35 l -9.5,62.34999 h -8.8 z"
           id="path979"
           style="stroke-width:5" />
        <path
           class="cls-1"
           d="m 960.255,252.10607 h 32.35 v 8.09999 h -22.85 v 26.75 h 18.3 v 8.15 h -18.3 v 30.4 h 23 v 8.15 h -32.5 z"
           id="path981"
           style="stroke-width:5" />
        <path
           class="cls-1"
           d="m 1003.055,314.50607 8.9,-0.35001 c 0.7,7.45001 3.35,13.05001 10,13.05001 6.65,0 8.95,-5.95 8.95,-11.45 a 24,24 0 0 0 -7.1,-15.45001 l -9.75,-10.79999 a 31.2,31.2 0 0 1 -9.75,-20 16.85,16.85 0 0 1 17.75,-18.3 c 9,0 16.1,5 16.9,19.09999 h -8.45 c -0.9,-7.9 -3.55,-11.7 -9.05,-11.7 -5.5,0 -8.35,3.3 -8.35,10 a 24.7,24.7 0 0 0 8,14.65001 l 8.5,9.6 a 32.8,32.8 0 0 1 10,22.54999 c 0,11.40001 -6.4,19.65001 -17.95,19.65001 -11.55,0 -17.8,-7.6 -18.6,-20.55 z"
           id="path983"
           style="stroke-width:5" />
        <path
           class="cls-1"
           d="m 1064.555,260.10607 h -15.6 v -8 h 40.5 v 8 h -15.4 v 73.55 h -9.5 z"
           id="path985"
           style="stroke-width:5" />
        <path
           class="cls-1"
           d="m 1106.655,252.10607 h 32.25 v 8 h -22.8 v 27.1 h 18.1 v 8.25 h -18.1 v 38.2 h -9.45 z"
           id="path987"
           style="stroke-width:5" />
        <path
           class="cls-1"
           d="m 1154.455,252.10607 h 9.5 v 81.54999 h -9.5 z"
           id="path989"
           style="stroke-width:5" />
        <path
           class="cls-1"
           d="m 1185.305,252.10607 h 32.4 v 8.09999 h -22.9 v 26.75 h 18.3 v 8.15 h -18.3 v 30.4 h 23 v 8.15 h -32.5 z"
           id="path991"
           style="stroke-width:5" />
        <path
           class="cls-1"
           d="m 1236.655,252.10607 h 9.45 v 73.29999 h 23 v 8.25001 h -32.45 z"
           id="path993"
           style="stroke-width:5" />
        <path
           class="cls-1"
           d="m 1279.555,252.10607 h 19.3 c 10.75,0 19,5.44999 19,17.15 v 45.85 c 0,12.59999 -8.25,18.54999 -19.2,18.54999 h -19.1 z m 18.5,73.4 a 9.7,9.7 0 0 0 10.3,-10.5 v -45 a 9.35,9.35 0 0 0 -10.3,-10 h -9.05 v 65.5 z"
           id="path995"
           style="stroke-width:5" />
      </g>
    </g>
    <path
       class="cls-2"
       d="M 337.49974,64.108172 C 331.74346,28.510126 327.12329,0.25891348 327.12329,0.25891348 L 233.81097,38.129172 h -0.45444 l 1.74203,6.968127 c 0,0 23.70678,-9.164602 31.65954,-0.378702 a 13.406072,13.406072 0 0 1 3.33258,5.90776 c 2.19648,7.043868 5.45332,21.586052 11.36108,53.700043 a 17.723281,17.723281 0 0 1 -2.95388,13.55755 l -0.37871,0.3787 -41.96024,42.41469 c -1.66629,-10.75515 -1.13611,-7.57406 0,0 v 0 C 226.7671,99.478999 210.40715,0.10743248 210.40715,0.10743248 l -93.76676,38.24896052 1.66629,6.892387 c 0,0 23.78253,-9.164602 31.73528,0 a 12.951628,12.951628 0 0 1 3.33258,5.83202 c 2.12074,7.043868 5.45332,21.586049 11.36108,53.70004 a 17.117357,17.117357 0 0 1 -3.86277,14.54218 l -41.43006,41.8845 C 110.05097,100.00918 93.76676,1.0920595 93.76676,1.0920595 L 0,39.34102 1.74203,46.309147 c 0,0 23.70678,-9.164602 31.65953,0 3.71129,4.165729 6.28647,2.347957 37.1886,187.533533 v 0.53018 c 0.45444,3.48406 2.49943,26.43344 -21.66179,46.95912 l 7.57405,8.71016 c 0,0 74.83163,-49.00411 67.33332,-101.56803 l -0.68166,-4.24149 47.71652,-47.86799 c 4.31721,24.53993 9.77053,56.04797 16.51144,96.49342 v 0 0.60591 c 0.53018,3.78702 2.27221,26.50918 -21.66179,46.88338 l 7.19535,8.63442 c 0,0 74.75589,-48.70116 67.18184,-101.71952 0,-1.21183 0,-2.57517 -0.53019,-3.86275 v 0 l 48.09523,-47.94374 37.18859,-37.112861 a 50.821887,50.821887 0 0 0 12.64867,-34.234717 z"
       id="path997"
       style="stroke-width:7.57405" />
  </g>
</svg>
