<?xml version="1.0" encoding="UTF-8" standalone="no"?>
<!-- Created with Inkscape (http://www.inkscape.org/) -->

<svg
   xmlns:dc="http://purl.org/dc/elements/1.1/"
   xmlns:cc="http://creativecommons.org/ns#"
   xmlns:rdf="http://www.w3.org/1999/02/22-rdf-syntax-ns#"
   xmlns:svg="http://www.w3.org/2000/svg"
   xmlns="http://www.w3.org/2000/svg"
   version="1.1"
   width="300.00079"
   height="95.11602"
   id="svg2"
   xml:space="preserve"><metadata
     id="metadata8"><rdf:RDF><cc:Work
         rdf:about=""><dc:format>image/svg+xml</dc:format><dc:type
           rdf:resource="http://purl.org/dc/dcmitype/StillImage" /><dc:title></dc:title></cc:Work></rdf:RDF></metadata><defs
     id="defs6"><clipPath
       id="clipPath18"><path
         d="M 0,3188.977 0,0 l 2480.316,0 0,3188.977 -2480.316,0 z"
         id="path20" /></clipPath></defs><g
     transform="matrix(1.25,0,0,-1.25,-222.04703,565.00236)"
     id="g10"><g
       transform="scale(0.24,0.24)"
       id="g12"><path
         d="m 1406.7668,1881.9435 c -0.3758,-0.1277 -41.6087,-15.1232 -82.3052,-40.0834 -19.1957,-11.6979 -35.275,-23.8337 -48.0324,-36.0352 -4.3571,0.4853 -8.6436,1.4304 -12.8012,2.6614 7.9782,3.9812 13.7463,8.4624 17.2386,11.2126 10.501,8.2677 16.5634,19.4536 16.5634,29.3452 0.015,9.0705 -2.7368,16.0939 -8.5524,21.6577 -11.4802,11.114 -30.4143,10.4487 -32.2766,10.3964 -1.8538,0.052 -20.7551,0.7176 -32.2962,-10.3964 -5.7826,-5.5638 -8.4903,-12.5726 -8.4903,-21.6577 0,-9.8916 6.043,-21.0775 16.5245,-29.3452 3.5312,-2.7502 9.2421,-7.2314 17.2337,-11.1944 -4.1284,-1.2492 -8.41,-2.1943 -12.8097,-2.6796 -12.7197,12.2015 -28.8367,24.3373 -47.985,36.0352 -40.7342,24.9407 -81.978,39.9557 -82.3344,40.0834 l -3.8243,1.3977 0.5462,-3.9971 c 0.038,-0.5692 1.934,-14.425 12.6674,-30.5323 9.8977,-14.8338 29.4352,-34.4297 66.5396,-43.5903 21.1444,-5.2268 38.6201,-6.077 52.7423,-4.6757 2.4985,-2.4182 4.7658,-4.8278 6.9602,-7.2643 4.5383,-5.065 8.5487,-10.1689 11.8694,-15.2388 -7.4309,-13.014 -10.467,-25.9624 -10.5339,-39.1808 0.02,-0.6082 0.4367,-13.7366 5.5017,-19.1763 2.5897,-2.8414 4.5858,-3.626 7.6888,-3.626 3.1358,0 5.0796,0.7651 7.6729,3.626 5.0845,5.4591 5.5455,18.5681 5.5455,19.1763 -0.1144,13.2184 -3.1504,26.1668 -10.5679,39.1808 3.3839,5.0699 7.308,10.1738 11.884,15.2388 2.1956,2.4365 4.514,4.8266 6.9419,7.2643 14.1307,-1.4013 31.6113,-0.5511 52.7508,4.6757 37.0947,9.1606 56.6663,28.7565 66.5397,43.5903 10.743,16.0793 12.6151,29.9631 12.682,30.5323 l 0.4889,3.9971 -3.772,-1.3977 z m -223.201,-71.9233 c -35.5743,8.7859 -54.2141,27.4403 -63.6508,41.4907 -6.6621,10.04 -9.6702,19.1909 -11.024,24.2182 11.423,-4.4192 44.5499,-17.994 77.3302,-38.0934 17.348,-10.5813 32.0686,-21.4473 43.9612,-32.3765 -14.3156,-0.8502 -30.1906,0.6751 -46.6166,4.761 m 51.5393,13.2573 c -9.2749,7.3506 -14.6209,17.4611 -14.6209,25.7666 0,7.5975 2.2004,13.8181 6.9565,18.3929 10.2589,9.9074 28.9036,8.9671 29.0739,8.9671 l 0.1046,1.6726 0.091,-1.6726 c 0.1752,0 18.7919,0.9403 29.0168,-8.9671 4.7658,-4.5748 6.9711,-10.7954 6.9711,-18.3929 0,-8.3055 -5.3217,-18.416 -14.5966,-25.7484 -6.0065,-4.6842 -13.3619,-9.0936 -21.5007,-12.3341 -8.1352,3.2405 -15.4712,7.6499 -21.4959,12.3159 m 32.2341,-85.2184 c 0,-0.2141 -0.1472,-20.9011 -10.7382,-20.9011 -10.5959,0 -10.7382,20.687 -10.7382,20.9011 0.095,11.7368 3.6917,23.7048 10.7382,35.6509 7.027,-11.9461 10.6384,-23.9141 10.7382,-35.6509 m 0.18,58.5675 c -4.2756,-4.7707 -7.887,-9.4562 -10.9,-14.155 -3.064,4.6891 -6.6852,9.3977 -10.9085,14.155 -1.4073,1.5436 -2.884,3.1212 -4.4191,4.7135 5.6112,0.8782 10.7431,2.3135 15.3094,4.0663 4.5614,-1.7528 9.7018,-3.1881 15.3227,-4.0663 -1.501,-1.5923 -3.0361,-3.1699 -4.4045,-4.7135 m 125.7628,54.8843 c -9.3989,-14.0504 -28.029,-32.7048 -63.6556,-41.4907 -16.4211,-4.0859 -32.2913,-5.6112 -46.6214,-4.761 11.9266,10.9292 26.6509,21.7952 43.9746,32.3765 32.7717,20.08 65.9412,33.6742 77.335,38.0934 -1.2869,-5.0273 -4.3753,-14.1782 -11.0326,-24.2182"
         id="path22"
         style="fill:#231f20;fill-opacity:1;fill-rule:nonzero;stroke:none" /><path
         d="m 1237.314,1851.9999 c 0,-3.3925 1.7589,-0.5839 6.0965,-0.5839 4.5566,0 6.144,-2.8086 6.1622,0.5839 -0.018,3.373 -2.7453,6.1147 -6.1622,6.1293 -3.3876,0 -6.0965,-2.7563 -6.0965,-6.1293"
         id="path24"
         style="fill:#231f20;fill-opacity:1;fill-rule:nonzero;stroke:none" /><path
         d="m 1269.2307,1851.416 c 4.5091,0 6.1196,-2.8086 6.1196,0.5839 0,3.373 -2.6943,6.1147 -6.1196,6.1147 -3.412,0 -6.1489,-2.7417 -6.1489,-6.1147 0.028,-3.3925 1.7869,-0.5839 6.1489,-0.5839"
         id="path26"
         style="fill:#231f20;fill-opacity:1;fill-rule:nonzero;stroke:none" /><path
         d="m 1269.4678,1869.0864 c -9.8356,0.3369 -13.1612,-4.5517 -13.1612,-4.5517 l 0,-3.7112 0.038,0.015 0,-1.2407 c 0.095,0.1289 4.2428,4.8753 11.7551,4.8753 8.9939,0 13.0043,-5.9968 13.0043,-13.4605 0,-9.9877 -8.8236,-22.8363 -24.7971,-28.4244 -15.9127,5.6173 -24.7789,18.4367 -24.7789,28.4244 -0.012,7.4832 4.0335,13.4605 13.0664,13.4605 7.488,0 11.631,-4.7609 11.7356,-4.8753 l -0.023,1.2261 0,3.7112 c 0,0 -3.2319,4.8886 -13.1053,4.5517 -10.6908,-0.3333 -16.1499,-9.489 -16.1499,-17.8613 0,-12.0118 11.5934,-27.2871 29.2783,-32.2001 17.6521,4.913 29.2601,20.1883 29.2601,32.2001 0,8.3723 -5.4555,17.528 -16.122,17.8613"
         id="path28"
         style="fill:#231f20;fill-opacity:1;fill-rule:nonzero;stroke:none" /><path
         d="m 1253.0175,1843.9268 c 0,-2.7746 1.9815,-7.7447 3.3122,-7.7447 l 0,0 c 1.321,0 3.3025,4.9701 3.3025,7.7447 0,2.704 -1.473,3.6443 -3.3256,3.6443 l 0,0 c -1.8015,0 -3.2891,-0.95 -3.2891,-3.6443"
         id="path30"
         style="fill:#231f20;fill-opacity:1;fill-rule:nonzero;stroke:none" /><path
         d="m 845.42591,1569.2242 c -10.53873,0 -16.72049,3.2404 -24.8312,14.4445 l -13.21391,18.1277 c -6.59984,9.0986 -13.06661,12.9764 -27.35908,12.9898 l -28.6847,-0.013 0,-45.5486 -11.18024,0 0,101.5872 11.18024,0 0,-45.6568 20.6072,0 c 13.518,0 19.96567,5.0127 27.8865,15.3617 l 23.07791,30.2951 13.96466,0 -24.63646,-32.3484 c -6.17216,-8.1583 -10.33923,-12.6151 -17.39522,-16.2825 l 0,-0.1435 c 10.79538,-2.1469 16.19782,-6.6086 22.66459,-15.3325 l 12.15432,-16.2934 c 5.61627,-7.5927 9.67874,-10.7856 15.77488,-10.7856 l 3.31184,0 -1.04536,-10.4013 -2.27597,0 z m 85.54588,0 0.0142,101.5872 88.23951,0 1.2078,-10.3441 -78.31937,0 0,-34.8943 74.00487,0 0,-11.2235 -74.00487,0 0,-33.8969 83.83567,0 -2.0715,-11.2284 -92.90634,0 z m 291.71281,0 c -10.3915,0 -16.5537,3.2404 -24.7083,14.4445 l -6.8178,9.6836 c -6.7181,9.4513 -13.1953,13.3522 -27.2214,13.3522 l -34.5854,0 -0.015,-37.4803 -11.2187,0 0,101.5872 51.1975,0 c 25.4966,0 39.5896,-13.2901 39.5896,-31.4835 0.023,-14.8192 -9.9452,-24.0138 -22.6126,-27.9294 l 0,-0.1374 c 5.9153,-2.2807 10.0875,-6.6755 14.5771,-12.772 l 6.0771,-8.078 c 5.6452,-7.6973 9.6885,-10.7856 15.8275,-10.7856 l 3.4594,0 -1.2784,-10.4013 -2.271,0 z m -53.3687,91.2431 -39.9642,0 0,-43.2812 39.9739,0 c 16.0551,0 27.4915,7.4308 27.4915,21.7233 0,13.9933 -11.7259,21.5579 -27.5012,21.5579 m 140.43,10.3441 11.1615,0 0,-101.5872 -11.1615,0.019 0,101.5678 z m 213.5417,-101.5872 -93.9131,85.8692 -0.281,0 0,-85.8692 -11.17,0 0,101.5872 10.3623,0 93.9278,-85.9494 0.2895,0 0,85.9494 11.1469,0 0,-101.5872 -10.3624,0 z m 166.0263,-2.9364 c -48.8742,0 -71.1291,25.1828 -71.1291,54.039 0,29.2126 22.8108,53.4928 69.0199,53.4928 16.7106,0 33.1415,-3.232 47.9801,-9.4319 l 0,-11.6225 c -14.4165,6.6001 -31.0323,10.6908 -48.1468,10.6628 -38.2405,0 -56.6991,-19.681 -56.6857,-43.3761 -0.013,-24.2717 19.6384,-43.4054 58.9616,-43.4054 15.785,0 30.3572,3.5202 39.5372,7.6876 l 0,25.2922 -42.1743,0 1.3258,10.4256 52.1378,0 0.019,-42.6074 c -13.0578,-6.5904 -30.8474,-11.1567 -50.8459,-11.1567"
         id="path32"
         style="fill:#231f20;fill-opacity:1;fill-rule:nonzero;stroke:none" /></g></g></svg>