<?xml version="1.0" encoding="UTF-8" standalone="no"?>
<svg
   xmlns:dc="http://purl.org/dc/elements/1.1/"
   xmlns:cc="http://creativecommons.org/ns#"
   xmlns:rdf="http://www.w3.org/1999/02/22-rdf-syntax-ns#"
   xmlns:svg="http://www.w3.org/2000/svg"
   xmlns="http://www.w3.org/2000/svg"
   xmlns:sodipodi="http://sodipodi.sourceforge.net/DTD/sodipodi-0.dtd"
   xmlns:inkscape="http://www.inkscape.org/namespaces/inkscape"
   version="1.1"
   id="svg60"
   width="900"
   height="500"
   viewBox="0 0 900 500"
   sodipodi:docname="logo-malakoff.svg"
   inkscape:version="1.0.2 (e86c870879, 2021-01-15)">
  <metadata
     id="metadata66">
    <rdf:RDF>
      <cc:Work
         rdf:about="">
        <dc:format>image/svg+xml</dc:format>
        <dc:type
           rdf:resource="http://purl.org/dc/dcmitype/StillImage" />
        <dc:title></dc:title>
      </cc:Work>
    </rdf:RDF>
  </metadata>
  <defs
     id="defs64" />
  <sodipodi:namedview
     pagecolor="#ffffff"
     bordercolor="#666666"
     borderopacity="1"
     objecttolerance="10"
     gridtolerance="10"
     guidetolerance="10"
     inkscape:pageopacity="0"
     inkscape:pageshadow="2"
     inkscape:window-width="1719"
     inkscape:window-height="778"
     id="namedview62"
     showgrid="false"
     inkscape:zoom="0.88666667"
     inkscape:cx="450"
     inkscape:cy="250"
     inkscape:window-x="0"
     inkscape:window-y="31"
     inkscape:window-maximized="0"
     inkscape:current-layer="g68" />
  <g
     inkscape:groupmode="layer"
     inkscape:label="Image"
     id="g68">
    <path
       style="fill:#ff4b34;opacity:1;fill-opacity:1"
       d="m 425.38297,356.59784 c -5.07911,-2.36496 -8.42674,-5.87501 -12.01492,-12.59784 -1.65699,-3.10455 -1.90474,-6.40939 -2.19274,-29.25 L 410.85062,289 H 419.92531 429 v 22.7656 c 0,25.57025 0.51171,27.84554 7.07727,31.46866 4.80332,2.65066 12.97539,1.9993 16.52543,-1.31717 C 457.76408,337.09531 458,335.76793 458,311.54966 V 289 h 9 9 v 34.5 34.5 h -9 -9 l -0.0111,-5.25 -0.0111,-5.25 -2.6591,3.37486 c -6.16334,7.82233 -19.81998,10.43314 -29.93575,5.72298 z m 205.82199,0.56922 C 616.8742,352.05126 609.13551,338.3641 610.20949,320.03309 611.31488,301.16619 623.97034,288 641,288 c 7.85231,0 14.13103,2.4132 19.9942,7.6847 L 666,300.18534 V 294.59267 289 h 8.5 8.5 v 34.5 34.5 h -8.5 -8.5 v -5.5 c 0,-3.025 -0.16205,-5.5 -0.36012,-5.5 -0.19807,0 -2.10894,1.64935 -4.24638,3.66522 -7.96077,7.50796 -20.06647,10.11522 -30.18854,6.50184 z m 23.41113,-15.08018 c 5.2444,-2.38158 9.01319,-7.32826 10.50404,-13.78697 3.17084,-13.73685 -7.00227,-26.33439 -20.23915,-25.0625 -16.78538,1.61287 -23.03393,25.56058 -9.49388,36.38557 5.94064,4.74942 12.37936,5.57445 19.22899,2.4639 z M 833.5,356.97554 C 823.99023,353.94491 818.27673,348.31007 816.54098,340.25 L 815.84109,337 h 8.45813 c 8.43093,0 8.46209,0.01 9.68499,2.96188 0.79681,1.92368 2.78066,3.71407 5.6597,5.10779 8.31774,4.02654 18.35609,0.17719 18.35609,-7.03891 0,-3.70364 -3.71168,-6.32205 -11.41607,-8.05349 C 825.91876,325.33312 818,319.2425 818,307.99228 c 0,-12.54893 12.93935,-20.90095 30.62262,-19.7661 12.91085,0.82856 22.95039,7.89875 24.88354,17.52382 l 0.65275,3.25 h -8.01207 c -7.07384,0 -8.08477,-0.22906 -8.6329,-1.95608 -0.34146,-1.07584 -1.98131,-3.10084 -3.64411,-4.5 -5.38276,-4.52929 -17.04083,-2.69509 -18.44564,2.9021 -1.52832,6.08932 1.29104,8.18738 16.21173,12.0641 13.08003,3.39848 19.2163,6.8741 22.11408,12.52555 1.2375,2.41346 2.25,5.95068 2.25,7.8605 0,4.7782 -3.52986,11.64345 -7.57174,14.72635 -7.97798,6.0851 -23.44471,8.01268 -34.92826,4.35302 z M 330,309.5 V 261 h 9 9 v 19.63486 19.63486 l 2.22651,-2.88486 c 4.79545,-6.21339 11.00931,-9.3317 18.65747,-9.3629 11.56328,-0.0472 20.34499,5.62859 24.0563,15.54797 C 394.81375,308.57722 395,311.2871 395,333.53751 V 358 h -9 -9 v -23.13197 c 0,-21.74167 -0.12601,-23.33585 -2.09654,-26.52424 C 372.26185,304.06958 368.30805,302 362.78406,302 c -5.57361,0 -10.65479,2.76933 -12.95679,7.06166 C 348.21086,312.07562 348,315.09589 348,335.2344 V 358 h -9 -9 z m 164,14 V 289 h 8.5 8.5 l 0.006,5.75 0.006,5.75 3.97074,-4.6323 c 4.67244,-5.4509 10.01627,-7.87627 17.28659,-7.84574 7.25877,0.0305 12.99075,2.87113 16.85455,8.35275 l 3.16528,4.49062 2.11976,-3.14551 c 3.78587,-5.61785 9.57338,-8.86851 16.82615,-9.45069 7.78646,-0.62502 12.60484,0.77421 17.51658,5.08673 7.16474,6.29064 7.70708,8.87059 8.07105,38.39414 l 0.32362,26.25 h -9.07362 -9.07361 v -24.6 -24.6 l -3.4,-3.4 c -2.90125,-2.90125 -4.08882,-3.4 -8.09571,-3.4 -2.62245,0 -5.96511,0.74986 -7.57078,1.69835 C 554.71075,306.78351 554,310.59534 554,335.52024 V 358 h -8.5 -8.5 l -0.0239,-21.25 c -0.0273,-24.28632 -0.62055,-28.13041 -4.93883,-32 -6.54556,-5.86546 -17.62176,-2.50741 -20.00248,6.06428 -0.56302,2.02714 -1.02619,13.47322 -1.02925,25.43572 L 511,358 h -8.5 -8.5 z m 207,0 V 289 h 9 9 v 5.22084 5.22084 l 3.75,-3.87398 c 4.95207,-5.1158 10.45207,-7.51991 17.25,-7.54016 8.50886,-0.0254 12.94947,1.64802 18.13908,6.83538 7.14907,7.146 7.86092,10.7065 7.86092,39.31858 V 358 h -8.40502 -8.40502 l -0.36541,-22.75 c -0.40556,-25.24936 -0.90398,-27.44297 -7.1231,-31.34936 -4.55981,-2.86415 -13.60953,-2.25679 -17.31663,1.16218 C 719.44322,309.62033 719,312.16412 719,335.96788 V 358 h -9 -9 z m 82,0 V 289 h 9 9 v 34.5 34.5 h -9 -9 z M 137,354.90786 C 89.377592,351.45445 51.556274,324.99678 28.48947,279 24.253578,270.55334 19,258.00845 19,256.34033 c 0,-0.33771 2.1375,1.37866 4.75,3.81416 16.827367,15.68725 41.989291,28.99191 68.647316,36.29806 62.411854,17.10519 132.563294,3.66902 176.577934,-33.82014 3.56138,-3.03339 6.61166,-5.37884 6.77838,-5.21211 0.6403,0.6403 -5.20929,15.48608 -9.48798,24.0797 -12.81903,25.74664 -32.70339,46.87789 -55.53354,59.01585 C 189.84794,351.61922 163.24827,356.81129 137,354.90786 Z M 785.25084,277.2241 c -4.95381,-3.81351 -4.53028,-12.994 0.72483,-15.71152 1.60876,-0.83192 4.78197,-1.51258 7.05159,-1.51258 3.26628,0 4.76208,0.6355 7.17486,3.04827 2.70215,2.70216 2.9843,3.52518 2.48491,7.24844 -0.78027,5.81736 -4.27721,8.7105 -10.49279,8.68105 -2.88955,-0.0137 -5.55892,-0.68788 -6.9434,-1.75366 z M 134,270.91202 C 85.561062,266.79157 44.698493,234.94663 23.760021,185 c -5.891982,-14.05473 -5.870524,-14.17504 1.358076,-7.61406 21.866184,19.84667 55.49896,34.69103 91.381903,40.33287 15.04622,2.3657 47.73385,2.34319 63,-0.0434 35.25549,-5.51155 65.98181,-19.01141 90.08527,-39.5797 3.21803,-2.74605 5.99058,-4.8532 6.16123,-4.68255 0.64619,0.64619 -5.17936,15.44748 -9.4802,24.08683 -6.60793,13.27376 -14.37421,24.45627 -24.11353,34.7206 -22.21004,23.40731 -49.16071,36.02115 -82.79869,38.75263 -6.95448,0.56473 -13.36667,0.9638 -14.2493,0.88684 -0.88263,-0.077 -5.87978,-0.50359 -11.10478,-0.94805 z m 332.90912,-32.46553 c -9.53486,-2.9372 -17.60124,-13.13945 -19.96105,-25.24647 -3.36716,-17.27523 3.41396,-33.98482 16.50976,-40.68226 5.04711,-2.58119 6.99599,-3.01477 13.47146,-2.99707 8.85471,0.0242 14.52682,2.18626 20.94311,7.983 L 502,181.23272 V 175.61636 170 h 9 9 v 34.5 34.5 h -9 -9 v -5.59267 -5.59267 l -5.0058,4.50064 c -2.75319,2.47536 -7.10835,5.21706 -9.67814,6.09267 -5.67056,1.93216 -14.2074,1.94827 -20.40694,0.0385 z m 26.44412,-16.48636 c 5.68975,-3.89868 8.13835,-9.19828 8.14289,-17.62399 0.003,-6.35525 -0.33631,-7.64788 -3.00997,-11.45203 -4.16984,-5.93295 -8.446,-8.21863 -15.36392,-8.21228 -11.61745,0.0107 -19.09818,8.07588 -19.11666,20.61029 -0.0107,7.27369 5.05506,15.36325 11.49442,18.35548 4.55908,2.1185 13.54566,1.27413 17.85324,-1.67747 z m 94.65176,16.3557 c -2.75245,-1.0078 -6.69645,-3.84728 -10.17376,-7.32459 -4.81863,-4.81863 -6.01125,-6.77341 -7.87393,-12.90588 -4.29835,-14.15137 -1.52176,-29.67821 7.05378,-39.44521 5.4774,-6.23841 12.07072,-9.02364 21.48891,-9.0776 9.38452,-0.0538 15.08014,2.08425 20.80606,7.81017 1.995,1.99501 3.86727,3.62728 4.16061,3.62728 C 623.76,181 624,178.525 624,175.5 V 170 h 8.5 8.5 v 34.5 34.5 h -8.5 -8.5 v -5.5 c 0,-3.025 -0.25405,-5.5 -0.56456,-5.5 -0.31051,0 -1.62328,1.25822 -2.91728,2.79605 -1.294,1.53783 -4.7352,4.09276 -7.64713,5.67763 -6.65279,3.6209 -17.76053,4.44379 -24.86603,1.84215 z m 24.29274,-14.66687 c 7.3757,-3.08177 12.50547,-12.77224 11.32403,-21.39181 -1.71476,-12.51051 -12.33495,-20.29638 -23.56149,-17.27338 -13.98727,3.76638 -18.88546,23.24831 -8.58816,34.15832 5.31619,5.63251 13.7588,7.45957 20.82562,4.50687 z M 747.5,238.60118 c -10.36059,-3.27663 -17.906,-9.71664 -22.08985,-18.8537 -2.46932,-5.39275 -2.86193,-7.47879 -2.8697,-15.24748 -0.008,-7.76248 0.37486,-9.82502 2.78265,-15 3.54816,-7.62594 10.9275,-14.66614 18.48864,-17.63895 8.03751,-3.1601 22.3214,-3.16735 30.33535,-0.0154 7.93256,3.11994 14.11958,8.91931 18.0646,16.93278 2.93533,5.96252 3.28503,7.58091 3.28378,15.19736 -0.002,10.63449 -2.16375,17.22972 -7.71586,23.53724 -5.04227,5.72833 -9.82013,8.82759 -16.8077,10.90267 -6.30803,1.87328 -17.8468,1.96446 -23.47191,0.18548 z m 21.9236,-16.65823 c 2.0622,-1.39532 4.67531,-4.56413 6.09347,-7.38929 9.01996,-17.96903 -8.33199,-36.94041 -25.6134,-28.00385 -13.78378,7.12788 -12.78308,30.37382 1.59633,37.08223 4.56115,2.12792 13.53169,1.28255 17.9236,-1.68909 z M 330,205 v -34 h 9 9 v 5.23213 5.23214 l 2.53404,-3.72918 c 8.02292,-11.80678 29.63044,-10.98664 36.01882,1.36713 l 1.55076,2.99884 4.53965,-5.04918 c 3.60986,-4.01504 5.6816,-5.38116 10.1152,-6.67004 9.49947,-2.76157 17.62803,-0.83508 24.00732,5.6898 5.62789,5.75635 6.23421,9.41382 6.23421,37.6065 L 433,239 h -8.42068 -8.42068 l -0.32932,-23.75 c -0.35856,-25.85842 -0.57006,-26.90162 -6.14314,-30.29977 -5.88558,-3.58869 -14.58211,-1.5225 -17.87236,4.24626 -0.95494,1.67429 -1.40378,8.79101 -1.64314,26.05351 L 389.84136,239 H 381.42068 373 v -22.53212 c 0,-23.80841 -0.49649,-26.98378 -4.8214,-30.83614 -2.95599,-2.633 -10.07019,-3.25628 -13.99596,-1.22619 C 348.39149,187.40027 348,189.36604 348,215.45034 V 239 h -9 -9 z M 537,190.5 V 142 h 8.5 8.5 v 48.5 48.5 h -8.5 -8.5 z m 122,0 V 142 h 8.5 8.5 v 29.08333 c 0,16.02952 0.38959,28.93372 0.86799,28.75 0.4774,-0.18333 6.36365,-6.74583 13.08056,-14.58333 L 702.16111,171 H 712.203 c 9.41987,0 9.95688,0.1084 8.66944,1.75 -0.75484,0.9625 -6.88494,7.94502 -13.62244,15.51671 -6.7375,7.57169 -12.25,14.22538 -12.25,14.78597 0,0.5606 6.313,8.87808 14.0289,18.48329 L 723.05779,239 H 712.75701 702.45622 L 689.47811,222.25 676.5,205.5 676.22582,222.25 675.95164,239 H 667.47582 659 Z M 808,212 v -27 h -4.5 -4.5 v -7 -7 h 4.35496 4.35497 l 0.57941,-6.9112 c 0.76246,-9.09465 3.51904,-14.37715 9.47279,-18.1529 5.62873,-3.56963 10.15425,-4.92289 16.48787,-4.93032 L 839,141 v 7.5 7.5 h -4.32569 C 828.5453,156 826,158.88946 826,165.8472 v 5.2183 l 11.25,-0.28275 11.25,-0.28275 0.54049,-7.60577 c 0.97064,-13.65886 9.06999,-21.01596 23.41553,-21.26966 L 879.5,141.5 l 0.29381,7.25 0.29381,7.25 h -4.97123 c -6.56633,0 -9.35826,3.11494 -8.91324,9.94442 L 866.5,170.5 l 6.75,0.29569 6.75,0.29569 V 178.04569 185 h -7 -7 v 27 27 H 857.5 849 V 212 185 H 837.5 826 v 27 27 h -9 -9 z"
       id="path72" />
  </g>
</svg>
