<?xml version="1.0" encoding="UTF-8" standalone="no"?>
<svg
   xmlns:dc="http://purl.org/dc/elements/1.1/"
   xmlns:cc="http://creativecommons.org/ns#"
   xmlns:rdf="http://www.w3.org/1999/02/22-rdf-syntax-ns#"
   xmlns:svg="http://www.w3.org/2000/svg"
   xmlns="http://www.w3.org/2000/svg"
   xmlns:sodipodi="http://sodipodi.sourceforge.net/DTD/sodipodi-0.dtd"
   xmlns:inkscape="http://www.inkscape.org/namespaces/inkscape"
   aria-hidden="true"
   focusable="false"
   data-prefix="fab"
   data-icon="github-alt"
   class="svg-inline--fa fa-github-alt fa-w-15"
   role="img"
   viewBox="0 0 480 480"
   version="1.1"
   id="svg1562"
   sodipodi:docname="logo-github.svg"
   inkscape:version="1.0.2 (e86c870879, 2021-01-15)">
  <metadata
     id="metadata1568">
    <rdf:RDF>
      <cc:Work
         rdf:about="">
        <dc:format>image/svg+xml</dc:format>
        <dc:type
           rdf:resource="http://purl.org/dc/dcmitype/StillImage" />
        <dc:title />
      </cc:Work>
    </rdf:RDF>
  </metadata>
  <defs
     id="defs1566" />
  <sodipodi:namedview
     pagecolor="#ffffff"
     bordercolor="#666666"
     borderopacity="1"
     objecttolerance="10"
     gridtolerance="10"
     guidetolerance="10"
     inkscape:pageopacity="0"
     inkscape:pageshadow="2"
     inkscape:window-width="1918"
     inkscape:window-height="829"
     id="namedview1564"
     showgrid="false"
     inkscape:zoom="1.2890625"
     inkscape:cx="242.71515"
     inkscape:cy="287.0303"
     inkscape:window-x="0"
     inkscape:window-y="31"
     inkscape:window-maximized="1"
     inkscape:current-layer="svg1562"
     inkscape:document-rotation="0" />
  <path
     fill="currentColor"
     d="m 186.1,360.68854 c 0,20.9 -10.9,55.1 -36.7,55.1 -25.8,0 -36.7,-34.2 -36.7,-55.1 0,-20.9 10.9,-55.1 36.7,-55.1 25.8,0 36.7,34.2 36.7,55.1 z m 293.9,-50.5 c 0,31.9 -3.2,65.7 -17.5,95 -37.9,76.6 -142.1,74.8 -216.7,74.8 -75.8,0 -186.2,2.7 -225.6,-74.8 -14.6,-29 -20.2,-63.1 -20.2,-95 0,-41.9 13.9,-81.5 41.5,-113.6 -5.2,-15.8 -7.7,-32.4 -7.7,-48.8 0,-21.49999 4.9,-32.29999 14.6,-51.799993 45.3,0 74.3,9.000003 108.8,36.000003 29,-6.9 58.8,-10 88.7,-10 27,0 54.2,2.9 80.4,9.2 34,-26.7 63,-35.200003 107.8,-35.200003 9.8,19.500003 14.6,30.300003 14.6,51.799993 0,16.4 -2.6,32.7 -7.7,48.2 27.5,32.4 39,72.3 39,114.2 z m -64.3,50.5 c 0,-43.9 -26.7,-82.6 -73.5,-82.6 -18.9,0 -37,3.4 -56,6 -14.9,2.3 -29.8,3.2 -45.1,3.2 -15.2,0 -30.1,-0.9 -45.1,-3.2 -18.7,-2.6 -37,-6 -56,-6 -46.8,0 -73.5,38.7 -73.5,82.6 0,87.8 80.4,101.3 150.4,101.3 h 48.2 c 70.3,0 150.6,-13.4 150.6,-101.3 z m -82.6,-55.1 c -25.8,0 -36.7,34.2 -36.7,55.1 0,20.9 10.9,55.1 36.7,55.1 25.8,0 36.7,-34.2 36.7,-55.1 0,-20.9 -10.9,-55.1 -36.7,-55.1 z"
     id="path1560" />
</svg>
