<?xml version="1.0" encoding="UTF-8" standalone="no"?>
<svg
   xmlns:dc="http://purl.org/dc/elements/1.1/"
   xmlns:cc="http://creativecommons.org/ns#"
   xmlns:rdf="http://www.w3.org/1999/02/22-rdf-syntax-ns#"
   xmlns:svg="http://www.w3.org/2000/svg"
   xmlns="http://www.w3.org/2000/svg"
   xmlns:sodipodi="http://sodipodi.sourceforge.net/DTD/sodipodi-0.dtd"
   xmlns:inkscape="http://www.inkscape.org/namespaces/inkscape"
   inkscape:version="1.0beta1 (76ce730, 2019-10-19)"
   sodipodi:docname="Logo Université Tours 2017.svg"
   viewBox="0 0 700 181.86768"
   height="181.86768"
   width="700"
   xml:space="preserve"
   id="svg10"
   version="1.1"><metadata
     id="metadata16"><rdf:RDF><cc:Work
         rdf:about=""><dc:format>image/svg+xml</dc:format><dc:type
           rdf:resource="http://purl.org/dc/dcmitype/StillImage" /><dc:title></dc:title></cc:Work></rdf:RDF></metadata><defs
     id="defs14" /><sodipodi:namedview
     inkscape:current-layer="g18"
     inkscape:window-maximized="0"
     inkscape:window-y="23"
     inkscape:window-x="0"
     inkscape:cy="-42.657194"
     inkscape:cx="73.556984"
     inkscape:zoom="0.49497475"
     showgrid="false"
     id="namedview12"
     inkscape:window-height="784"
     inkscape:window-width="1015"
     inkscape:pageshadow="2"
     inkscape:pageopacity="0"
     guidetolerance="10"
     gridtolerance="10"
     objecttolerance="10"
     borderopacity="1"
     inkscape:document-rotation="0"
     bordercolor="#666666"
     pagecolor="#ffffff" /><g
     transform="matrix(1.3333333,0,0,-1.3333333,-146.63586,67.214398)"
     inkscape:label="Logo Université Tours 2017"
     inkscape:groupmode="layer"
     id="g18"><path
       d="m 301.95155,50.4108 c -13.92821,0 -26.52395,-5.739833 -35.56647,-14.964566 -9.03112,9.224733 -21.60409,14.964566 -35.5323,14.964566 -11.01274,0 -21.17133,-3.63295 -29.42803,-9.691663 l 20.6019,-20.613291 c 2.6877,1.218576 5.66011,1.913277 8.79197,1.913277 11.77576,0 21.33076,-9.543612 21.33076,-21.33076871 l 0.0228,-85.26613529 h 28.39168 l 0.0114,85.25474674 v 0.0227771 h 0.0342 c 0,11.77576816 9.53223,21.33077116 21.30799,21.33077116 H 319.5925 L 347.9614,50.4108 Z"
       style="opacity:1;fill:#424b54;fill-opacity:1;fill-rule:nonzero;stroke:none;stroke-width:11.3886;stop-opacity:1"
       id="path636"
       inkscape:connector-curvature="0" /><path
       d="m 181.05289,0.68152152 0.0114,-35.54369152 c 0,-11.775769 -9.54361,-21.330768 -21.31938,-21.330768 -11.77577,0 -21.2966,9.554999 -21.2966,21.330768 V 22.092011 L 109.9769,-6.447717 V -34.85078 c 0,-27.457815 22.34435,-49.722448 49.80217,-49.722448 27.4692,0 49.72244,22.264633 49.72244,49.722448 l 0.0114,35.54369008 c 0,8.63252772 5.13624,16.05786692 12.51603,19.40610392 l -20.60192,20.61329 C 189.1046,31.669788 181.05289,17.126599 181.05289,0.68152152"
       style="opacity:1;fill:#46a49c;fill-opacity:0.905882;fill-rule:nonzero;stroke:none;stroke-width:11.3886;stop-opacity:1"
       id="path640"
       inkscape:connector-curvature="0" /><g
       style="fill:#424b54;fill-opacity:1"
       id="g1600"><path
         inkscape:connector-curvature="0"
         id="path644"
         style="opacity:1;fill:#424b54;fill-opacity:1;fill-rule:nonzero;stroke:none;stroke-width:11.3886;stop-opacity:1"
         d="m 337.80273,-84.674584 c -0.2961,1.275518 -0.40999,2.733253 -0.40999,4.008773 -1.33247,-1.856336 -4.94263,-4.828749 -9.70305,-4.828749 -7.50506,0 -13.72321,5.705667 -13.72321,14.543189 0,8.666692 6.27511,14.417915 13.72321,14.417915 3.37102,0 6.62815,-1.446348 9.30446,-4.065717 v 16.627296 h 4.64653 v -33.721522 c 0,-2.209379 0,-4.600977 0.46693,-6.981185 z m -18.72279,13.723213 c 0,-6.343428 4.06573,-10.466085 9.07667,-10.466085 4.64656,0 7.84672,3.029356 8.83754,4.236542 v 12.33381 c -2.56243,2.562425 -5.70567,4.247931 -8.83754,4.247931 -5.01094,0 -9.07667,-4.077103 -9.07667,-10.352198" /><path
         inkscape:connector-curvature="0"
         id="path648"
         style="opacity:1;fill:#424b54;fill-opacity:1;fill-rule:nonzero;stroke:none;stroke-width:11.3886;stop-opacity:1"
         d="m 377.11717,-80.370849 c -2.96102,-2.847139 -7.78977,-5.124851 -13.31322,-5.124851 -8.83751,0 -14.01932,6.400371 -14.01932,14.190144 0,8.256705 6.04733,14.77096 14.41792,14.77096 6.4573,0 13.66627,-4.008773 13.73459,-13.723213 0,-0.409988 0,-0.922473 -0.0683,-1.389404 h -23.42626 c 0.17082,-5.352622 3.59877,-9.71444 9.81692,-9.71444 3.90628,0 7.44814,1.628563 9.77141,4.008772 z m -22.33296,12.390752 h 18.02808 c -0.11388,5.113463 -4.71484,7.550615 -8.83751,7.550615 -4.88569,0 -8.14282,-3.314071 -9.19057,-7.550615" /><path
         inkscape:connector-curvature="0"
         id="path652"
         style="opacity:1;fill:#424b54;fill-opacity:1;fill-rule:nonzero;stroke:none;stroke-width:11.3886;stop-opacity:1"
         d="m 394.70111,-41.863854 h 40.38382 v -8.131432 h -15.46566 v -34.67816 h -9.38417 v 34.67816 h -15.53399 z" /><path
         inkscape:connector-curvature="0"
         id="path656"
         style="opacity:1;fill:#424b54;fill-opacity:1;fill-rule:nonzero;stroke:none;stroke-width:11.3886;stop-opacity:1"
         d="m 462.1635,-40.549617 c 13.57517,0 24.45124,-10.158594 24.45124,-22.617675 0,-12.721019 -10.87607,-22.822672 -24.45124,-22.822672 -13.57515,0 -24.18929,10.101653 -24.18929,22.822672 0,12.459081 10.61414,22.617675 24.18929,22.617675 m 0,-37.365858 c 8.1884,0 14.62291,6.685083 14.62291,14.748183 0,7.926437 -6.43451,14.486246 -14.62291,14.486246 -8.06308,0 -14.36096,-6.559809 -14.36096,-14.486246 0,-8.0631 6.29788,-14.748183 14.36096,-14.748183" /><path
         inkscape:connector-curvature="0"
         id="path660"
         style="opacity:1;fill:#424b54;fill-opacity:1;fill-rule:nonzero;stroke:none;stroke-width:11.3886;stop-opacity:1"
         d="m 534.01393,-41.863854 v -27.400872 c 0,-10.682468 -8.25672,-16.718403 -19.6111,-16.718403 -11.00136,0 -19.46304,6.035935 -19.46304,16.718403 v 27.400872 h 9.44111 v -27.400872 c 0,-5.637337 4.52125,-8.655305 10.02193,-8.655305 5.84234,0 10.16999,3.017968 10.16999,8.655305 v 27.400872 z" /><path
         inkscape:connector-curvature="0"
         id="path664"
         style="opacity:1;fill:#424b54;fill-opacity:1;fill-rule:nonzero;stroke:none;stroke-width:11.3886;stop-opacity:1"
         d="m 546.07554,-84.674584 v 42.809589 h 23.73375 c 6.0929,0 10.09028,-1.765226 12.84632,-4.646532 2.23215,-2.368819 3.54183,-5.455117 3.54183,-8.860296 0,-5.500674 -3.40518,-9.771384 -8.6553,-12.060485 l 10.03331,-17.242276 h -10.75079 l -8.65531,15.738987 h -12.72102 v -15.738987 z m 9.37279,34.883154 v -11.217731 h 15.34039 c 3.27991,0 5.96761,2.357432 5.96761,5.637338 0,1.446346 -0.52389,2.75603 -1.50328,3.735447 -1.51469,1.639952 -3.40518,1.844946 -5.11349,1.844946 z" /><path
         inkscape:connector-curvature="0"
         id="path668"
         style="opacity:1;fill:#424b54;fill-opacity:1;fill-rule:nonzero;stroke:none;stroke-width:11.3886;stop-opacity:1"
         d="m 626.84547,-52.876592 c -2.56241,1.901891 -7.93782,4.58959 -15.0101,4.58959 -4.25933,0 -8.06311,-1.571621 -8.06311,-5.250126 0,-3.79239 5.63734,-4.065715 11.20634,-4.521258 7.80116,-0.523873 19.9983,-1.434957 19.9983,-13.244893 0,-10.545805 -8.79196,-14.67985 -19.26943,-14.67985 -11.09245,0 -18.56336,4.395981 -23.54015,8.461697 l 5.30707,6.41176 c 3.59877,-2.881306 9.70305,-7.19757 18.35836,-7.19757 5.44373,0 9.77138,2.095496 9.77138,6.09288 0,4.122657 -4.39598,5.045129 -10.81912,5.569005 -9.37279,0.592205 -20.39692,1.639952 -20.39692,12.527413 0,10.352199 9.64612,13.575162 17.7092,13.575162 8.91725,0 16.45648,-3.279905 20.12359,-5.774001 z" /></g><g
       style="fill:#45a49c;fill-opacity:1"
       id="g1612"><path
         inkscape:connector-curvature="0"
         id="path672"
         style="opacity:1;fill:#45a49c;fill-opacity:1;fill-rule:nonzero;stroke:none;stroke-width:11.3886;stop-opacity:1"
         d="M 340.38907,1.5561632 V -20.082099 c 0,-2.35743 0,-4.89708 0.5011,-7.436727 h -4.53265 c -0.30749,1.355238 -0.43276,3.097686 -0.43276,4.464315 -2.41438,-2.676312 -5.52345,-5.341234 -10.6597,-5.341234 -6.38897,0 -11.28605,4.282098 -11.28605,10.238314 V 1.5561632 h 5.02235 V -18.157431 c 0,-3.291294 2.90408,-5.899273 7.00396,-5.899273 4.21376,0 7.31146,2.551036 9.41834,4.908467 V 1.5561632 Z" /><path
         inkscape:connector-curvature="0"
         id="path676"
         style="opacity:1;fill:#45a49c;fill-opacity:1;fill-rule:nonzero;stroke:none;stroke-width:11.3886;stop-opacity:1"
         d="m 351.44053,-27.525659 v 21.7065913 c 0,2.3460421 -0.25056,4.82874875 -0.80858,7.3683963 h 4.53263 c 0.43277,-1.53745479 0.61499,-2.7788072 0.68332,-4.4529246 2.41438,2.66492162 5.5804,5.3981764 10.71664,5.3981764 6.38897,0 11.22913,-4.2820981 11.22913,-10.3066469 V -27.525659 h -4.96543 v 19.7135925 c 0,3.2912939 -2.90408,5.9562174 -7.00396,5.9562174 -4.28211,0 -7.31146,-2.6079807 -9.41834,-4.9540228 V -27.525659 Z" /><path
         inkscape:connector-curvature="0"
         id="path680"
         style="opacity:1;fill:#45a49c;fill-opacity:1;fill-rule:nonzero;stroke:none;stroke-width:11.3886;stop-opacity:1"
         d="m 390.75952,15.200793 c 1.85635,0 3.2913,-1.366626 3.2913,-2.972412 0,-1.685506 -1.43495,-2.9838034 -3.2913,-2.9838034 -1.85634,0 -3.22295,1.2982974 -3.22295,2.9838034 0,1.605786 1.36661,2.972412 3.22295,2.972412 M 388.34516,1.5573017 h 4.89708 V -27.517688 h -4.89708 z" /><path
         inkscape:connector-curvature="0"
         id="path684"
         style="opacity:1;fill:#45a49c;fill-opacity:1;fill-rule:nonzero;stroke:none;stroke-width:11.3886;stop-opacity:1"
         d="M 430.20493,1.5561632 417.42698,-27.518826 h -4.33903 L 400.37831,1.5561632 h 5.58039 l 9.23611,-22.3215752 h 0.37583 l 9.555,22.3215752 z" /><path
         inkscape:connector-curvature="0"
         id="path688"
         style="opacity:1;fill:#45a49c;fill-opacity:1;fill-rule:nonzero;stroke:none;stroke-width:11.3886;stop-opacity:1"
         d="m 463.76132,-22.93721 c -3.16601,-3.040744 -8.31364,-5.45512 -14.20154,-5.45512 -9.41832,0 -14.94177,6.821748 -14.94177,15.124006 0,8.8147443 6.44591,15.7617641 15.37454,15.7617641 6.8901,0 14.57735,-4.2820982 14.63431,-14.6342971 0,-0.444154 0,-1.002193 -0.057,-1.491901 h -24.9979 c 0.1936,-5.705667 3.84934,-10.363588 10.48888,-10.363588 4.15682,0 7.92643,1.742449 10.42052,4.282098 z m -23.81346,13.2107279 h 19.22388 c -0.12528,5.4551192 -5.02236,8.0631 -9.41834,8.0631 -5.21597,0 -8.68948,-3.5418422 -9.80554,-8.0631" /><path
         inkscape:connector-curvature="0"
         id="path692"
         style="opacity:1;fill:#45a49c;fill-opacity:1;fill-rule:nonzero;stroke:none;stroke-width:11.3886;stop-opacity:1"
         d="m 473.19562,-27.525659 v 21.7065913 c 0,2.4143735 -0.25056,4.82874875 -0.86555,7.3683963 h 4.5896 c 0.43277,-1.66272888 0.61498,-3.0976867 0.68331,-5.0223542 1.98161,2.98380303 4.57821,5.967606 8.8603,5.967606 1.79938,0 3.54184,-0.5010982 4.40736,-1.4919024 l -1.61716,-4.5326463 c -0.86553,0.7516463 -2.7902,1.1844114 -3.90628,1.1844114 -3.16601,0 -5.45513,-2.8585289 -7.18618,-5.3412337 V -27.525659 Z" /><path
         inkscape:connector-curvature="0"
         id="path696"
         style="opacity:1;fill:#45a49c;fill-opacity:1;fill-rule:nonzero;stroke:none;stroke-width:11.3886;stop-opacity:1"
         d="m 518.40819,-4.766765 c -1.98161,1.2413524 -6.44593,3.2229627 -10.97858,3.2229627 -3.40517,0 -7.00397,-1.2413542 -7.00397,-4.2820982 0,-3.5304536 4.96541,-3.8379446 8.24532,-3.9632187 5.0907,-0.2505478 13.70044,-0.6833128 13.70044,-8.8033558 0,-6.764803 -6.07011,-9.862492 -13.63209,-9.862492 -6.82177,0 -11.41135,2.53965 -14.26987,4.521258 l 1.92465,3.724059 c 2.73327,-1.799393 6.69648,-4.156824 12.27687,-4.156824 4.8971,0 8.74642,1.799392 8.74642,5.272902 0,4.03155 -5.21597,4.407373 -8.74642,4.58959 -6.01314,0.375822 -13.14239,0.86553 -13.14239,8.1200424 0,6.8217457 6.32064,8.9969595 11.84409,8.9969595 5.51207,0 10.72803,-2.1752138 12.96018,-3.59878306 z" /><path
         inkscape:connector-curvature="0"
         id="path700"
         style="opacity:1;fill:#45a49c;fill-opacity:1;fill-rule:nonzero;stroke:none;stroke-width:11.3886;stop-opacity:1"
         d="m 533.04932,15.200793 c 1.85633,0 3.29128,-1.366626 3.29128,-2.972412 0,-1.685506 -1.43495,-2.9838034 -3.29128,-2.9838034 -1.85634,0 -3.22296,1.2982974 -3.22296,2.9838034 0,1.605786 1.36662,2.972412 3.22296,2.972412 M 530.63494,1.5573017 h 4.89708 V -27.517688 h -4.89708 z" /><path
         inkscape:connector-curvature="0"
         id="path704"
         style="opacity:1;fill:#45a49c;fill-opacity:1;fill-rule:nonzero;stroke:none;stroke-width:11.3886;stop-opacity:1"
         d="m 542.54054,1.5561632 h 5.70567 v 8.8033538 h 4.95402 V 1.5561632 h 8.74641 v -3.8379446 h -8.74641 V -20.332647 c 0,-2.721864 1.79939,-3.906274 4.03155,-3.906274 1.56022,0 3.97461,0.432765 4.84013,0.93386 l 0.61499,-3.849332 c -1.17303,-0.808587 -4.14544,-1.423569 -6.37759,-1.423569 -3.66713,0 -8.0631,2.04994 -8.0631,8.245315 v 18.0508656 h -5.70567 z" /><path
         inkscape:connector-curvature="0"
         id="path708"
         style="opacity:1;fill:#45a49c;fill-opacity:1;fill-rule:nonzero;stroke:none;stroke-width:11.3886;stop-opacity:1"
         d="m 596.92775,-22.93721 c -3.16603,-3.040744 -8.31367,-5.45512 -14.20154,-5.45512 -9.41835,0 -14.9418,6.821748 -14.9418,15.124006 0,8.8147443 6.44592,15.7617641 15.37455,15.7617641 6.8901,0 14.57737,-4.2820982 14.63431,-14.6342971 0,-0.444154 0,-1.002193 -0.0569,-1.491901 h -24.9979 c 0.19362,-5.705667 3.84934,-10.363588 10.48887,-10.363588 4.15683,0 7.92643,1.742449 10.42053,4.282098 z m -23.81349,13.2107279 h 19.22389 c -0.12527,5.4551192 -5.02235,8.0631 -9.41834,8.0631 -5.21597,0 -8.68948,-3.5418422 -9.80555,-8.0631 m 17.24228,25.1117711 -6.44592,-9.0539043 -4.46432,0.056943 5.26152,9.0652923 z" /></g></g></svg>
